<svg xmlns="http://www.w3.org/2000/svg" width="800" height="380" viewBox="0 0 800 380">
  <defs>
    <style>
      @import url('https://fonts.googleapis.com/css2?family=Press+Start+2P&amp;display=swap');
      text { font-family: 'Press Start 2P', monospace; }
    </style>
  </defs>

  <!-- Background -->
  <rect width="800" height="380" fill="#1a1a2e" rx="0"/>
  
  <!-- Pixel border - outer -->
  <rect x="4" y="4" width="792" height="372" fill="none" stroke="#e94560" stroke-width="4"/>
  <!-- Pixel border - inner -->
  <rect x="12" y="12" width="776" height="356" fill="none" stroke="#533483" stroke-width="2"/>
  
  <!-- Corner pixels -->
  <rect x="4" y="4" width="8" height="8" fill="#00ff41"/>
  <rect x="788" y="4" width="8" height="8" fill="#00ff41"/>
  <rect x="4" y="368" width="8" height="8" fill="#00ff41"/>
  <rect x="788" y="368" width="8" height="8" fill="#00ff41"/>

  <!-- Title bar -->
  <rect x="12" y="12" width="776" height="36" fill="#533483"/>
  <rect x="250" y="16" width="300" height="28" fill="#1a1a2e" rx="0"/>
  <text x="400" y="36" fill="#00ff41" font-size="12" text-anchor="middle">PLAYER STATS</text>
  
  <!-- Decorative pixels on title bar -->
  <rect x="20" y="20" width="8" height="8" fill="#e94560"/>
  <rect x="32" y="20" width="8" height="8" fill="#e94560"/>
  <rect x="44" y="20" width="8" height="8" fill="#e94560"/>
  <rect x="760" y="20" width="8" height="8" fill="#e94560"/>
  <rect x="748" y="20" width="8" height="8" fill="#e94560"/>
  <rect x="736" y="20" width="8" height="8" fill="#e94560"/>

  <!-- Pixel art character (simple 8-bit astronaut) -->
  <!-- Head -->
  <rect x="60" y="80" width="8" height="8" fill="#533483"/>
  <rect x="68" y="80" width="8" height="8" fill="#533483"/>
  <rect x="76" y="80" width="8" height="8" fill="#533483"/>
  <rect x="84" y="80" width="8" height="8" fill="#533483"/>
  <rect x="52" y="88" width="8" height="8" fill="#533483"/>
  <rect x="60" y="88" width="8" height="8" fill="#73eff7"/>
  <rect x="68" y="88" width="8" height="8" fill="#73eff7"/>
  <rect x="76" y="88" width="8" height="8" fill="#73eff7"/>
  <rect x="84" y="88" width="8" height="8" fill="#73eff7"/>
  <rect x="92" y="88" width="8" height="8" fill="#533483"/>
  <rect x="52" y="96" width="8" height="8" fill="#533483"/>
  <rect x="60" y="96" width="8" height="8" fill="#73eff7"/>
  <rect x="68" y="96" width="8" height="8" fill="#1a1a2e"/>
  <rect x="76" y="96" width="8" height="8" fill="#73eff7"/>
  <rect x="84" y="96" width="8" height="8" fill="#1a1a2e"/>
  <rect x="92" y="96" width="8" height="8" fill="#533483"/>
  <rect x="52" y="104" width="8" height="8" fill="#533483"/>
  <rect x="60" y="104" width="8" height="8" fill="#73eff7"/>
  <rect x="68" y="104" width="8" height="8" fill="#73eff7"/>
  <rect x="76" y="104" width="8" height="8" fill="#73eff7"/>
  <rect x="84" y="104" width="8" height="8" fill="#73eff7"/>
  <rect x="92" y="104" width="8" height="8" fill="#533483"/>
  <rect x="60" y="112" width="8" height="8" fill="#533483"/>
  <rect x="68" y="112" width="8" height="8" fill="#533483"/>
  <rect x="76" y="112" width="8" height="8" fill="#533483"/>
  <rect x="84" y="112" width="8" height="8" fill="#533483"/>
  <!-- Body -->
  <rect x="44" y="120" width="8" height="8" fill="#e94560"/>
  <rect x="52" y="120" width="8" height="8" fill="#e94560"/>
  <rect x="60" y="120" width="8" height="8" fill="#e94560"/>
  <rect x="68" y="120" width="8" height="8" fill="#00ff41"/>
  <rect x="76" y="120" width="8" height="8" fill="#e94560"/>
  <rect x="84" y="120" width="8" height="8" fill="#e94560"/>
  <rect x="92" y="120" width="8" height="8" fill="#e94560"/>
  <rect x="44" y="128" width="8" height="8" fill="#e94560"/>
  <rect x="52" y="128" width="8" height="8" fill="#e94560"/>
  <rect x="60" y="128" width="8" height="8" fill="#e94560"/>
  <rect x="68" y="128" width="8" height="8" fill="#e94560"/>
  <rect x="76" y="128" width="8" height="8" fill="#e94560"/>
  <rect x="84" y="128" width="8" height="8" fill="#e94560"/>
  <rect x="92" y="128" width="8" height="8" fill="#e94560"/>
  <rect x="36" y="136" width="8" height="8" fill="#73eff7"/>
  <rect x="44" y="136" width="8" height="8" fill="#e94560"/>
  <rect x="52" y="136" width="8" height="8" fill="#e94560"/>
  <rect x="60" y="136" width="8" height="8" fill="#e94560"/>
  <rect x="68" y="136" width="8" height="8" fill="#e94560"/>
  <rect x="76" y="136" width="8" height="8" fill="#e94560"/>
  <rect x="84" y="136" width="8" height="8" fill="#e94560"/>
  <rect x="92" y="136" width="8" height="8" fill="#e94560"/>
  <rect x="100" y="136" width="8" height="8" fill="#73eff7"/>
  <!-- Legs -->
  <rect x="52" y="144" width="8" height="8" fill="#533483"/>
  <rect x="60" y="144" width="8" height="8" fill="#533483"/>
  <rect x="76" y="144" width="8" height="8" fill="#533483"/>
  <rect x="84" y="144" width="8" height="8" fill="#533483"/>
  <rect x="52" y="152" width="8" height="8" fill="#533483"/>
  <rect x="60" y="152" width="8" height="8" fill="#533483"/>
  <rect x="76" y="152" width="8" height="8" fill="#533483"/>
  <rect x="84" y="152" width="8" height="8" fill="#533483"/>
  <!-- Boots -->
  <rect x="44" y="160" width="8" height="8" fill="#e94560"/>
  <rect x="52" y="160" width="8" height="8" fill="#e94560"/>
  <rect x="60" y="160" width="8" height="8" fill="#e94560"/>
  <rect x="76" y="160" width="8" height="8" fill="#e94560"/>
  <rect x="84" y="160" width="8" height="8" fill="#e94560"/>
  <rect x="92" y="160" width="8" height="8" fill="#e94560"/>

  <!-- Stats text -->
  <text x="160" y="98" fill="#e94560" font-size="9">PILOT</text>
  <text x="300" y="98" fill="#ffffff" font-size="9">Ivan Kent Custodio</text>

  <text x="160" y="122" fill="#e94560" font-size="9">CLASS</text>
  <text x="300" y="122" fill="#ffffff" font-size="9">Computer Engineering</text>

  <text x="160" y="146" fill="#e94560" font-size="9">BASE</text>
  <text x="300" y="146" fill="#ffffff" font-size="9">Digos City, Davao del Sur</text>

  <text x="160" y="170" fill="#e94560" font-size="9">ACADEMY</text>
  <text x="300" y="170" fill="#ffffff" font-size="9">Cor Jesu College 2022-2026</text>

  <!-- Separator line -->
  <line x1="160" y1="190" x2="760" y2="190" stroke="#533483" stroke-width="2" stroke-dasharray="4,4"/>

  <!-- HP / MP / EXP bars -->
  <text x="160" y="220" fill="#e94560" font-size="8">HP</text>
  <rect x="220" y="210" width="200" height="14" fill="#2a2a4a" rx="0"/>
  <rect x="220" y="210" width="180" height="14" fill="#e94560" rx="0"/>
  <text x="310" y="221" fill="#ffffff" font-size="7" text-anchor="middle">90/100</text>

  <text x="160" y="248" fill="#00ff41" font-size="8">MP</text>
  <rect x="220" y="238" width="200" height="14" fill="#2a2a4a" rx="0"/>
  <rect x="220" y="238" width="140" height="14" fill="#00ff41" rx="0"/>
  <text x="310" y="249" fill="#ffffff" font-size="7" text-anchor="middle">70/100</text>

  <text x="160" y="276" fill="#73eff7" font-size="8">EXP</text>
  <rect x="220" y="266" width="200" height="14" fill="#2a2a4a" rx="0"/>
  <rect x="220" y="266" width="120" height="14" fill="#73eff7" rx="0"/>
  <text x="310" y="277" fill="#ffffff" font-size="7" text-anchor="middle">LVL 4 - 60%</text>

  <!-- Active mission box -->
  <rect x="160" y="300" width="600" height="48" fill="#0f3460" stroke="#00ff41" stroke-width="2"/>
  <!-- Blinking arrow pixel -->
  <rect x="172" y="318" width="8" height="8" fill="#00ff41"/>
  <rect x="180" y="318" width="4" height="8" fill="#00ff41"/>
  <text x="196" y="330" fill="#00ff41" font-size="9">ACTIVE MISSION: Exploring AI Automation</text>

  <!-- Stars decoration -->
  <rect x="480" y="210" width="4" height="4" fill="#ffcd75"/>
  <rect x="520" y="240" width="4" height="4" fill="#ffcd75"/>
  <rect x="560" y="215" width="4" height="4" fill="#ffcd75"/>
  <rect x="600" y="250" width="4" height="4" fill="#ffcd75"/>
  <rect x="640" y="220" width="4" height="4" fill="#ffcd75"/>
  <rect x="680" y="245" width="4" height="4" fill="#ffcd75"/>
  <rect x="500" y="260" width="4" height="4" fill="#ffcd75"/>
  <rect x="580" y="270" width="4" height="4" fill="#ffcd75"/>
  <rect x="660" y="265" width="4" height="4" fill="#ffcd75"/>
  <rect x="720" y="230" width="4" height="4" fill="#ffcd75"/>

  <!-- Small pixel rocket near stars -->
  <rect x="700" y="208" width="4" height="4" fill="#e94560"/>
  <rect x="704" y="204" width="4" height="4" fill="#e94560"/>
  <rect x="704" y="208" width="4" height="4" fill="#ffffff"/>
  <rect x="704" y="212" width="4" height="4" fill="#e94560"/>
  <rect x="708" y="204" width="4" height="4" fill="#ffffff"/>
  <rect x="708" y="208" width="4" height="4" fill="#73eff7"/>
  <rect x="708" y="212" width="4" height="4" fill="#ffffff"/>
  <rect x="712" y="204" width="4" height="4" fill="#e94560"/>
  <rect x="712" y="208" width="4" height="4" fill="#e94560"/>
  <rect x="712" y="212" width="4" height="4" fill="#e94560"/>
  <rect x="716" y="208" width="4" height="4" fill="#e94560"/>
  <!-- Flame -->
  <rect x="696" y="206" width="4" height="4" fill="#ffcd75"/>
  <rect x="696" y="210" width="4" height="4" fill="#ef7d57"/>
  <rect x="692" y="208" width="4" height="4" fill="#ef7d57"/>
</svg>
