<svg xmlns="http://www.w3.org/2000/svg" width="800" height="380" viewBox="0 0 800 380" shape-rendering="crispEdges">
  <defs>
    <style>
      @import url('https://fonts.googleapis.com/css2?family=Press+Start+2P&amp;display=swap');
      .heading { font-family: 'Press Start 2P', monospace; font-size: 13px; fill: #ffcd75; }
      .cat-label { font-family: 'Press Start 2P', monospace; font-size: 9px; fill: #e94560; }
      .skill-name { font-family: 'Press Start 2P', monospace; font-size: 8px; fill: #c9d1d9; }
      .skill-lv { font-family: 'Press Start 2P', monospace; font-size: 7px; fill: #533483; }
      @keyframes shimmer { 0%{opacity:0.8} 50%{opacity:1} 100%{opacity:0.8} }
      .shimmer { animation: shimmer 2s infinite; }
    </style>
  </defs>
  
  <!-- Background -->
  <rect width="800" height="380" fill="#0d1117"/>
  
  <!-- Outer pixel border -->
  <rect x="20" y="10" width="760" height="360" fill="none" stroke="#533483" stroke-width="4"/>
  <rect x="24" y="14" width="752" height="352" fill="none" stroke="#1a1a2e" stroke-width="2"/>
  <rect x="28" y="18" width="744" height="344" fill="none" stroke="#e94560" stroke-width="2"/>
  
  <!-- Inner background -->
  <rect x="30" y="20" width="740" height="340" fill="#0a0e17" opacity="0.8"/>
  
  <!-- Header bar -->
  <rect x="30" y="20" width="740" height="28" fill="#1a1a2e"/>
  <rect x="30" y="48" width="740" height="2" fill="#e94560"/>
  
  <!-- Pixel sword icon -->
  <g transform="translate(50, 24)">
    <rect x="16" y="0" width="4" height="4" fill="#ffcd75"/>
    <rect x="12" y="4" width="4" height="4" fill="#ffcd75"/>
    <rect x="16" y="4" width="4" height="4" fill="#c9d1d9"/>
    <rect x="8" y="8" width="4" height="4" fill="#ffcd75"/>
    <rect x="12" y="8" width="4" height="4" fill="#c9d1d9"/>
    <rect x="4" y="12" width="4" height="4" fill="#e94560"/>
    <rect x="8" y="12" width="4" height="4" fill="#c9d1d9"/>
    <rect x="0" y="16" width="4" height="4" fill="#e94560"/>
    <rect x="4" y="16" width="4" height="4" fill="#533483"/>
  </g>
  
  <text x="86" y="40" class="heading">WEAPONS BAY</text>
  
  <!-- Decorative pixels -->
  <rect x="720" y="28" width="6" height="6" fill="#e94560"/>
  <rect x="732" y="28" width="6" height="6" fill="#00ff41"/>
  <rect x="744" y="28" width="6" height="6" fill="#ffcd75"/>

  <!-- LANGUAGES -->
  <rect x="50" y="65" width="220" height="140" fill="#0f1923" stroke="#1a1a2e" stroke-width="2"/>
  <rect x="52" y="67" width="216" height="22" fill="#1a1a2e"/>
  <text x="95" y="83" class="cat-label">LANGUAGES</text>
  
  <text x="65" y="110" class="skill-name">JavaScript</text>
  <rect x="155" y="102" width="100" height="10" fill="#1a1a2e" stroke="#533483" stroke-width="1"/>
  <rect x="156" y="103" width="88" height="8" fill="#00ff41" class="shimmer"/>
  
  <text x="65" y="133" class="skill-name">Java</text>
  <rect x="155" y="125" width="100" height="10" fill="#1a1a2e" stroke="#533483" stroke-width="1"/>
  <rect x="156" y="126" width="78" height="8" fill="#00ff41"/>
  
  <text x="65" y="156" class="skill-name">Python</text>
  <rect x="155" y="148" width="100" height="10" fill="#1a1a2e" stroke="#533483" stroke-width="1"/>
  <rect x="156" y="149" width="78" height="8" fill="#00ff41"/>
  
  <!-- Small pixel heart decoration -->
  <rect x="62" y="175" width="4" height="4" fill="#e94560"/>
  <rect x="70" y="175" width="4" height="4" fill="#e94560"/>
  <rect x="58" y="179" width="4" height="4" fill="#e94560"/>
  <rect x="62" y="179" width="4" height="4" fill="#e94560"/>
  <rect x="66" y="179" width="4" height="4" fill="#e94560"/>
  <rect x="70" y="179" width="4" height="4" fill="#e94560"/>
  <rect x="74" y="179" width="4" height="4" fill="#e94560"/>
  <rect x="62" y="183" width="4" height="4" fill="#e94560"/>
  <rect x="66" y="183" width="4" height="4" fill="#e94560"/>
  <rect x="70" y="183" width="4" height="4" fill="#e94560"/>
  <rect x="66" y="187" width="4" height="4" fill="#e94560"/>
  
  <!-- AI & VISION -->
  <rect x="290" y="65" width="220" height="140" fill="#0f1923" stroke="#1a1a2e" stroke-width="2"/>
  <rect x="292" y="67" width="216" height="22" fill="#1a1a2e"/>
  <text x="335" y="83" class="cat-label">AI & VISION</text>
  
  <text x="305" y="110" class="skill-name">YOLOv11</text>
  <rect x="395" y="102" width="100" height="10" fill="#1a1a2e" stroke="#533483" stroke-width="1"/>
  <rect x="396" y="103" width="68" height="8" fill="#73eff7"/>
  
  <text x="305" y="133" class="skill-name">OpenCV</text>
  <rect x="395" y="125" width="100" height="10" fill="#1a1a2e" stroke="#533483" stroke-width="1"/>
  <rect x="396" y="126" width="55" height="8" fill="#73eff7"/>
  
  <!-- Pixel eye icon -->
  <rect x="310" y="150" width="4" height="4" fill="#73eff7"/>
  <rect x="314" y="146" width="4" height="4" fill="#73eff7"/>
  <rect x="318" y="146" width="4" height="4" fill="#ffffff"/>
  <rect x="322" y="146" width="4" height="4" fill="#73eff7"/>
  <rect x="326" y="150" width="4" height="4" fill="#73eff7"/>
  <rect x="314" y="150" width="4" height="4" fill="#73eff7"/>
  <rect x="318" y="150" width="4" height="4" fill="#0d1117"/>
  <rect x="322" y="150" width="4" height="4" fill="#73eff7"/>
  
  <!-- IoT & HARDWARE -->
  <rect x="530" y="65" width="220" height="140" fill="#0f1923" stroke="#1a1a2e" stroke-width="2"/>
  <rect x="532" y="67" width="216" height="22" fill="#1a1a2e"/>
  <text x="565" y="83" class="cat-label">IoT & HARDWARE</text>
  
  <text x="545" y="110" class="skill-name">Arduino</text>
  <rect x="635" y="102" width="100" height="10" fill="#1a1a2e" stroke="#533483" stroke-width="1"/>
  <rect x="636" y="103" width="98" height="8" fill="#ef7d57" class="shimmer"/>
  
  <text x="545" y="133" class="skill-name">ESP32</text>
  <rect x="635" y="125" width="100" height="10" fill="#1a1a2e" stroke="#533483" stroke-width="1"/>
  <rect x="636" y="126" width="78" height="8" fill="#ef7d57"/>
  
  <text x="545" y="156" class="skill-name">RPi</text>
  <rect x="635" y="148" width="100" height="10" fill="#1a1a2e" stroke="#533483" stroke-width="1"/>
  <rect x="636" y="149" width="55" height="8" fill="#ef7d57"/>
  
  <!-- Pixel circuit icon -->
  <rect x="550" y="170" width="20" height="2" fill="#ef7d57"/>
  <rect x="560" y="170" width="2" height="10" fill="#ef7d57"/>
  <rect x="556" y="178" width="10" height="2" fill="#ef7d57"/>
  <rect x="554" y="176" width="4" height="4" fill="#ffcd75"/>
  <rect x="564" y="176" width="4" height="4" fill="#ffcd75"/>

  <!-- FRONTEND -->
  <rect x="50" y="220" width="220" height="130" fill="#0f1923" stroke="#1a1a2e" stroke-width="2"/>
  <rect x="52" y="222" width="216" height="22" fill="#1a1a2e"/>
  <text x="107" y="238" class="cat-label">FRONTEND</text>
  
  <text x="65" y="265" class="skill-name">HTML</text>
  <rect x="155" y="257" width="100" height="10" fill="#1a1a2e" stroke="#533483" stroke-width="1"/>
  <rect x="156" y="258" width="78" height="8" fill="#e94560"/>
  
  <text x="65" y="288" class="skill-name">CSS</text>
  <rect x="155" y="280" width="100" height="10" fill="#1a1a2e" stroke="#533483" stroke-width="1"/>
  <rect x="156" y="281" width="78" height="8" fill="#e94560"/>
  
  <text x="65" y="311" class="skill-name">Vue.js</text>
  <rect x="155" y="303" width="100" height="10" fill="#1a1a2e" stroke="#533483" stroke-width="1"/>
  <rect x="156" y="304" width="55" height="8" fill="#e94560"/>

  <!-- BACKEND & DB -->
  <rect x="290" y="220" width="220" height="130" fill="#0f1923" stroke="#1a1a2e" stroke-width="2"/>
  <rect x="292" y="222" width="216" height="22" fill="#1a1a2e"/>
  <text x="325" y="238" class="cat-label">BACKEND & DB</text>
  
  <text x="305" y="265" class="skill-name">Node.js</text>
  <rect x="395" y="257" width="100" height="10" fill="#1a1a2e" stroke="#533483" stroke-width="1"/>
  <rect x="396" y="258" width="78" height="8" fill="#ffcd75"/>
  
  <text x="305" y="288" class="skill-name">Supabase</text>
  <rect x="395" y="280" width="100" height="10" fill="#1a1a2e" stroke="#533483" stroke-width="1"/>
  <rect x="396" y="281" width="78" height="8" fill="#ffcd75"/>
  
  <text x="305" y="311" class="skill-name">MySQL</text>
  <rect x="395" y="303" width="100" height="10" fill="#1a1a2e" stroke="#533483" stroke-width="1"/>
  <rect x="396" y="304" width="55" height="8" fill="#ffcd75"/>

  <!-- TOOLS -->
  <rect x="530" y="220" width="220" height="130" fill="#0f1923" stroke="#1a1a2e" stroke-width="2"/>
  <rect x="532" y="222" width="216" height="22" fill="#1a1a2e"/>
  <text x="605" y="238" class="cat-label">TOOLS</text>
  
  <text x="545" y="265" class="skill-name">Docker</text>
  <rect x="635" y="257" width="100" height="10" fill="#1a1a2e" stroke="#533483" stroke-width="1"/>
  <rect x="636" y="258" width="78" height="8" fill="#533483"/>
  
  <text x="545" y="288" class="skill-name">Git</text>
  <rect x="635" y="280" width="100" height="10" fill="#1a1a2e" stroke="#533483" stroke-width="1"/>
  <rect x="636" y="281" width="98" height="8" fill="#533483" class="shimmer"/>
  
  <text x="545" y="311" class="skill-name">Make.com</text>
  <rect x="635" y="303" width="100" height="10" fill="#1a1a2e" stroke="#533483" stroke-width="1"/>
  <rect x="636" y="304" width="30" height="8" fill="#533483"/>
</svg>
